<svg xmlns="http://www.w3.org/2000/svg" viewBox="0 0 48 44"><defs><style>.cls-1{fill:#201602;}</style></defs><title>Asset 27ldpi</title><g id="Layer_2" data-name="Layer 2"><g id="layer_1-2" data-name="layer 1"><rect class="cls-1" x="35" y="14" width="11" height="2"/><path class="cls-1" d="M27,16H15a1,1,0,0,1-.71-.29l-10-10L5.71,4.29,15.41,14H27Z"/><rect class="cls-1" x="33" y="18" width="11" height="2"/><path class="cls-1" d="M25,20H13a1,1,0,0,1-.71-.29l-10-10L3.71,8.29,13.41,18H25Z"/><path class="cls-1" d="M42,24H11a1,1,0,0,1-.71-.29l-10-10,1.42-1.42L11.41,22H42Z"/><path class="cls-1" d="M47,12H17a1,1,0,0,1-.71-.29l-10-10A1,1,0,0,1,6.08.62,1,1,0,0,1,7,0H37a1,1,0,0,1,.71.29l10,10a1,1,0,0,1,.21,1.09A1,1,0,0,1,47,12ZM17.41,10H44.59l-8-8H9.41Z"/><path class="cls-1" d="M36,12H28a1,1,0,0,1-.71-.29l-10-10A1,1,0,0,1,17.08.62,1,1,0,0,1,18,0h8a1,1,0,0,1,.71.29l10,10a1,1,0,0,1,.21,1.09A1,1,0,0,1,36,12Zm-7.59-2h5.18l-8-8H20.41Z"/><path class="cls-1" d="M32,24H24a1,1,0,0,1-.81-.42,1,1,0,0,1-.14-.9l4-12A1,1,0,0,1,28,10h8a1,1,0,0,1,.81.42,1,1,0,0,1,.14.9l-4,12A1,1,0,0,1,32,24Zm-6.61-2h5.89l3.33-10H28.72Z"/><path class="cls-1" d="M9,41H1a1,1,0,0,1-1-1V26a1,1,0,0,1,1-1H9a1,1,0,0,1,1,1V40A1,1,0,0,1,9,41ZM2,39H8V27H2Z"/><path class="cls-1" d="M27,44l-.22,0-18-4,.44-2L26.87,42,46,32.38V29.33L33.27,33,32.73,31l14-4a1,1,0,0,1,.87.16,1,1,0,0,1,.4.8v5a1,1,0,0,1-.55.89l-20,10A1,1,0,0,1,27,44Z"/><path class="cls-1" d="M24,37a.84.84,0,0,1-.27,0l-7-2L17.27,33,24,35l8-1.77V31H25a1,1,0,0,1-.45-.11L18.76,28H9V26H19a1,1,0,0,1,.45.11L25.24,29H33a1,1,0,0,1,1,1v4a1,1,0,0,1-.78,1l-9,2Z"/><rect class="cls-1" x="4" y="35" width="2" height="2"/></g></g></svg>